<svg width="64" height="64" viewBox="0 0 64 64" fill="none" xmlns="http://www.w3.org/2000/svg">
  <circle cx="32" cy="32" r="32" fill="#4CAF50"/>
  <circle cx="32" cy="32" r="20" fill="white" fill-opacity="0.9"/>
  <path d="M32 22c-1.333 0-2.4 1.067-2.4 2.4v4.8c0 1.333 1.067 2.4 2.4 2.4s2.4-1.067 2.4-2.4v-4.8c0-1.333-1.067-2.4-2.4-2.4z" fill="#4CAF50"/>
  <path d="M32 42c1.333 0 2.4-1.067 2.4-2.4v-4.8c0-1.333-1.067-2.4-2.4-2.4s-2.4 1.067-2.4 2.4v4.8c0 1.333 1.067 2.4 2.4 2.4z" fill="#4CAF50"/>
  <path d="M42 32c0 1.333-1.067 2.4-2.4 2.4h-4.8c-1.333 0-2.4-1.067-2.4-2.4s1.067-2.4 2.4-2.4h4.8c1.333 0 2.4 1.067 2.4 2.4z" fill="#4CAF50"/>
  <path d="M22 32c0-1.333 1.067-2.4 2.4-2.4h4.8c1.333 0 2.4 1.067 2.4 2.4s-1.067 2.4-2.4 2.4h-4.8c-1.333 0-2.4-1.067-2.4-2.4z" fill="#4CAF50"/>
  <circle cx="32" cy="32" r="4" fill="#4CAF50"/>
</svg>